<?xml version="1.0" encoding="utf-8"?>
<!-- Generator: Adobe Illustrator 25.4.1, SVG Export Plug-In . SVG Version: 6.00 Build 0)  -->
<svg version="1.1" id="Layer_1" xmlns="http://www.w3.org/2000/svg" xmlns:xlink="http://www.w3.org/1999/xlink" x="0px" y="0px"
	 viewBox="0 0 197.65 197.65" style="enable-background:new 0 0 197.65 197.65;" xml:space="preserve">
<style type="text/css">
	.st0{fill:#EF3C18;}
	.st1{fill:#EF3D17;}
	.st2{fill:#0A0A0A;}
	.st2{fill:#fff;}
</style>
<g>
	<path class="st2" d="M55.12,138.75c-1.31-0.45-2.39-0.66-3.32-0.66c-1.7,0-2.93,0.72-3.98,2.35c-0.87,1.34-1.19,2.75-0.94,4.08
		c0.24,1.25,1.02,2.35,2.17,3.11c6.98,4.43,14.4,6.68,22.05,6.68c11.38,0,22.71-5.09,31.89-14.33
		c12.15-12.22,19.05-30.01,18.94-48.81c-0.91-16.2-7.29-27.33-19.49-33.96c-1.48-0.81-2.83-1.22-3.99-1.22c-1.64,0-2.94,0.82-4,2.5
		c-1.69,2.69-1.04,5.08,2.16,7.99c17.11,15.56,19.45,34.13,6.94,55.21c-8.64,14.57-17.51,20.78-29.66,20.78
		C68.6,142.47,62.45,141.25,55.12,138.75z"/>
	<path class="st2" d="M90.17,77.93l-0.45-0.01c-13.17,0-27.76,20.95-27.88,40.04c-0.42,5.31,0.66,9.58,3.1,12.42
		c2.23,2.6,5.62,4.07,10.06,4.39c0.29,0.02,0.58,0.03,0.86,0.03c13.09,0,28.05-20.6,28.07-38.66
		C103.95,84.08,99.58,78.29,90.17,77.93z M93.59,100.45c-0.47,1.43-0.86,2.97-1.28,4.6c-1.83,7.2-3.91,15.36-13.86,18.05
		c-0.63,0.17-1.22,0.25-1.77,0.25c-1.32,0-2.42-0.5-3.2-1.44c-1.83-2.21-1.31-6.13-1.01-7.71l0.17-0.86
		c1.87-9.7,3.99-20.69,15.57-24.21c0.45-0.14,0.89-0.21,1.3-0.21c3.96,0,4.04,5.44,4.12,10.25l0.02,0.9l0,0.2L93.59,100.45z"/>
	<path class="st2" d="M46.6,159.09c-1.36-0.73-2.65-1.11-3.77-1.11c-1.77,0-3.17,0.91-4.15,2.72c-1.95,3.59,0.34,6.29,2.6,7.92
		c6.87,4.95,14.95,7.26,25.44,7.26l1.09-0.01c21.69-0.54,42.27-11.84,56.46-30.99c15.16-20.47,20.41-46.33,14.06-69.17
		c-5.87-21.39-17.64-35.41-35.98-42.85c-2.14-0.87-3.91-1.29-5.41-1.29c-2.45,0-4.06,1.12-5.08,3.52c-0.97,2.29-1.21,4.98,4.39,7.58
		c30.98,14.07,36.66,43.81,31.66,66.95c-7.8,36.04-35.27,54.9-58.37,54.9C61.9,164.49,54.18,162.67,46.6,159.09z"/>
	<path class="st2" d="M137.43,147.09c1.11,0.58,2.15,0.87,3.09,0.87c3.31,0,5.45-3.82,7.19-7.41c7.8-16.06,11.61-31.92,11.99-49.92
		c-1.23-18.8-5.7-46.09-30.12-64.71l-0.51-0.39c-2.41-1.85-4.9-3.75-7.22-3.75c-1.51,0-2.89,0.86-4.21,2.62
		c-2.74,3.66-0.86,5.44,2.71,8.26c0.78,0.62,1.56,1.24,2.25,1.88c31.94,27.19,30.59,70.49,15.06,101.32
		c-0.27,0.55-0.57,1.14-0.89,1.74c-1.27,2.42-2.58,4.92-1.97,6.86C135.13,145.48,135.99,146.34,137.43,147.09z"/>
</g>
</svg>
