<?xml version="1.0" encoding="utf-8"?>
<!-- Generator: Adobe Illustrator 25.4.1, SVG Export Plug-In . SVG Version: 6.00 Build 0)  -->
<svg version="1.1" id="Layer_1" xmlns="http://www.w3.org/2000/svg" xmlns:xlink="http://www.w3.org/1999/xlink" x="0px" y="0px"
	 viewBox="0 0 197.65 197.65" style="enable-background:new 0 0 197.65 197.65;" xml:space="preserve">
<style type="text/css">
	.st0{fill:#EF3C18;}
	.st1{fill:#EF3D17;}
	.st2{fill:#0A0A0A;}
	.st2{fill:#fff;}
</style>
<path id="path2998" class="st2" d="M155.58,93.35H99.52v16.64h39.76c-1.96,23.33-21.37,33.28-39.69,33.28
	c-23.44,0-43.89-18.44-43.89-44.29c0-25.18,19.5-44.57,43.94-44.57c18.86,0,29.97,12.02,29.97,12.02l11.65-12.06
	c0,0-14.95-16.64-42.22-16.64c-34.72,0-61.58,29.3-61.58,60.96c0,31.02,25.27,61.26,62.47,61.26c32.72,0,56.67-22.41,56.67-55.56
	C156.6,97.38,155.58,93.34,155.58,93.35L155.58,93.35z"/>
</svg>
