<?xml version="1.0" encoding="utf-8"?>
<!-- Generator: Adobe Illustrator 25.4.1, SVG Export Plug-In . SVG Version: 6.00 Build 0)  -->
<svg version="1.1" id="Layer_1" xmlns="http://www.w3.org/2000/svg" xmlns:xlink="http://www.w3.org/1999/xlink" x="0px" y="0px"
	 viewBox="0 0 197.65 197.65" style="enable-background:new 0 0 197.65 197.65;" xml:space="preserve">
<style type="text/css">
	.st0{fill:#EF3C18;}
	.st1{fill:#EF3D17;}
	.st2{fill:#EAEAEA;}
</style>
<g>
	<rect x="41.97" y="157.54" class="st2" width="112.35" height="14.37"/>
	<path class="st2" d="M102.47,27.53c-2.29-2.64-6.38-2.64-8.67,0L44.13,84.07c-1.39,1.59-2.16,3.63-2.16,5.74v50.13h14.37V91.47
		c0-1.42,0.51-2.78,1.44-3.85L77.9,64.48l18.01-20.8c1.18-1.36,3.29-1.36,4.47,0l14.37,16.59l23.76,27.3
		c0.93,1.07,1.44,2.44,1.44,3.85v48.5h14.37V89.81c0-2.11-0.77-4.15-2.16-5.74L102.47,27.53z"/>
</g>
</svg>
