<svg xmlns="http://www.w3.org/2000/svg" viewBox="0 0 96.72 52.23"><g id="Layer_2" data-name="Layer 2"><g id="Layer_1-2" data-name="Layer 1"><circle cx="12.23" cy="12.23" r="12.23"/><circle cx="38.98" cy="40" r="12.23"/><rect x="0.59" y="27.53" width="22.63" height="24.68"/><rect x="55.11" y="0.78" width="22.63" height="51.43"/><path d="M80.88.88h6.49V2.05H84.78V8.21H83.42V2.05H80.88Z"/><path d="M88.43,8.21V.88h2.24l1.39,3.83a6.67,6.67,0,0,1,.28,2.21h.52a6.65,6.65,0,0,1,.3-2.21L94.54.88h2.18V8.21H95.36V4.92a8,8,0,0,1,.65-3l-.51-.21L93.14,8.21H92L89.64,1.67l-.51.21a7.89,7.89,0,0,1,.65,3V8.21Z"/></g></g></svg>