<svg xmlns="http://www.w3.org/2000/svg" xmlns:xlink="http://www.w3.org/1999/xlink" version="1.1" id="Layer_1" x="0px" y="0px" style="enable-background:new 0 0 707.74 181.78;" xml:space="preserve" viewBox="52.95 45.98 615.51 83.01">
<style type="text/css">
	.st0{fill:#FF4A12;}
	.st1{fill:#EF3C18;}
	.st2{fill:#2B2625;}
	.st3{fill:#EAEAEA;}
</style>
<g>
	<g>
		<rect x="55.95" y="76.33" class="st1" width="11.26" height="52.54"/>
	</g>
	<g>
		<path class="st1" d="M227.18,109.8c1.61-3.78,2.43-7.86,2.43-12.12V49.45h-11.26v48.23c0,2.72-0.53,5.33-1.57,7.75    c-1.03,2.39-2.47,4.52-4.29,6.33c-1.81,1.81-3.95,3.25-6.33,4.28c-4.85,2.09-10.64,2.09-15.5,0c-2.39-1.03-4.52-2.47-6.33-4.28    c-1.82-1.82-3.26-3.95-4.28-6.33c-1.04-2.41-1.57-5.01-1.57-7.75V49.45h-11.16l-0.1,48.24c0,4.27,0.82,8.35,2.43,12.12    c1.62,3.79,3.87,7.14,6.68,9.96c2.82,2.82,6.17,5.06,9.96,6.68c7.59,3.24,16.65,3.24,24.25,0c3.79-1.62,7.14-3.87,9.95-6.68    C223.31,116.95,225.56,113.6,227.18,109.8z"/>
	</g>
	<g>
		<polygon class="st1" points="296.34,60.71 296.34,49.45 242.48,49.45 242.48,128.87 296.34,128.87 296.34,117.61 253.74,117.61     253.74,94.79 287.82,94.79 287.82,83.53 253.74,83.53 253.74,60.71   "/>
	</g>
	<g>
		<rect x="391.58" y="49.45" class="st1" width="11.26" height="79.42"/>
	</g>
	<g>
		<path class="st1" d="M513.62,119.76c2.81,2.81,6.16,5.06,9.95,6.68c7.59,3.24,16.66,3.24,24.25,0c3.8-1.63,7.15-3.87,9.95-6.68    c2.81-2.81,5.06-6.16,6.68-9.96c1.61-3.78,2.43-7.86,2.43-12.12V49.45h-11.26v48.23c0,2.72-0.53,5.33-1.57,7.75    c-1.03,2.38-2.47,4.52-4.28,6.33c-1.81,1.81-3.94,3.25-6.33,4.28c-4.85,2.09-10.64,2.09-15.5,0c-2.38-1.03-4.51-2.47-6.33-4.28    c-1.82-1.82-3.26-3.95-4.28-6.33c-1.04-2.41-1.57-5.02-1.57-7.75V49.45h-11.16l-0.1,48.24c0,4.27,0.82,8.35,2.43,12.12    C508.56,113.6,510.81,116.95,513.62,119.76z"/>
	</g>
	<g>
		<path class="st1" d="M148.12,80.14l10.63-3.83c-0.3-0.89-0.64-1.77-1.01-2.62c-2.08-4.82-4.94-9.06-8.49-12.62    c-3.56-3.56-7.81-6.42-12.63-8.5c-4.79-2.07-10-3.12-15.47-3.12s-10.68,1.05-15.47,3.12c-4.82,2.08-9.07,4.94-12.63,8.5    c-3.56,3.55-6.42,7.8-8.5,12.63c-2.07,4.8-3.12,10-3.12,15.47c0,5.47,1.05,10.67,3.12,15.47c2.08,4.82,4.94,9.07,8.5,12.63    c3.56,3.56,7.8,6.42,12.63,8.5c4.79,2.07,10,3.12,15.47,3.12s10.68-1.05,15.47-3.12c4.82-2.08,9.07-4.94,12.63-8.5    c3.25-3.25,5.91-7.07,7.94-11.39l-10.68-3.85c-1.39,2.7-3.16,5.13-5.26,7.24c-2.56,2.56-5.6,4.61-9.04,6.09    c-6.98,3.02-15.26,3.02-22.17-0.01c-3.41-1.49-6.43-3.54-8.98-6.09c-2.55-2.56-4.6-5.58-6.09-8.98c-1.5-3.44-2.26-7.18-2.26-11.11    c0-3.86,0.76-7.58,2.26-11.05c1.49-3.45,3.54-6.49,6.1-9.04c2.55-2.55,5.57-4.6,8.98-6.09c6.91-3.01,15.2-3.01,22.17-0.01    c3.45,1.49,6.49,3.55,9.05,6.1c2.55,2.55,4.6,5.59,6.09,9.05C147.62,78.76,147.88,79.44,148.12,80.14z"/>
	</g>
	<g>
		<circle class="st1" cx="61.58" cy="54.61" r="8.63"/>
	</g>
	<g>
		<g>
			<path class="st1" d="M636.97,50.03h12.9v2.33h-5.14v12.23h-2.7V52.36h-5.05V50.03z"/>
			<path class="st1" d="M651.96,64.59V50.03h4.45l2.77,7.61c0.42,1.16,0.54,2.45,0.56,4.39h1.04c0.02-1.91,0.19-3.22,0.6-4.39     l2.75-7.61h4.33v14.56h-2.7v-6.53c0-1.94,0.44-3.95,1.29-6.03l-1.02-0.42l-4.68,12.98h-2.27l-4.68-12.98l-1.02,0.42     c0.85,2.06,1.29,4.06,1.29,6.03v6.53H651.96z"/>
		</g>
	</g>
	<g>
		<path class="st1" d="M482.91,61.02c-3.56-3.56-7.81-6.42-12.65-8.51c-4.81-2.07-10.02-3.12-15.49-3.12    c-5.48,0-10.69,1.05-15.49,3.12c-4.83,2.09-9.08,4.95-12.65,8.51c-3.56,3.57-6.43,7.82-8.51,12.65    c-2.07,4.81-3.12,10.02-3.12,15.49c0,5.48,1.05,10.69,3.12,15.49c2.08,4.82,4.94,9.08,8.51,12.65c3.56,3.56,7.82,6.42,12.65,8.51    c4.8,2.07,10.01,3.12,15.49,3.12c5.47,0,10.68-1.05,15.49-3.12c4.83-2.09,9.08-4.95,12.64-8.51c3.56-3.56,6.43-7.82,8.51-12.64    c2.07-4.81,3.12-10.02,3.12-15.49c0-5.48-1.05-10.69-3.12-15.49C489.34,68.84,486.48,64.58,482.91,61.02z M480.99,100.28    c-1.48,3.4-3.53,6.43-6.1,9c-2.56,2.56-5.6,4.61-9.06,6.1c-3.47,1.5-7.19,2.26-11.06,2.26c-3.95,0-7.69-0.76-11.13-2.27    c-3.42-1.49-6.44-3.54-8.99-6.09c-2.56-2.56-4.61-5.59-6.1-9c-1.5-3.44-2.27-7.18-2.27-11.12c0-3.87,0.76-7.59,2.26-11.07    c1.49-3.45,3.54-6.5,6.1-9.05c2.55-2.55,5.57-4.6,8.99-6.1c6.91-3.01,15.2-3.01,22.19,0c3.45,1.49,6.5,3.54,9.06,6.1    c2.56,2.56,4.61,5.6,6.1,9.05c1.5,3.48,2.26,7.2,2.26,11.07C483.26,93.1,482.5,96.84,480.99,100.28z"/>
	</g>
	<g>
		<path class="st1" d="M355.05,90.67v-2.51c10.41-0.22,17.2-8.19,17.2-16.04l0,0c0-3.07-0.6-6.01-1.79-8.76    c-1.2-2.77-2.84-5.21-4.87-7.25c-2.04-2.04-4.48-3.68-7.25-4.88c-2.75-1.19-5.69-1.79-8.76-1.79h-36.67v79.43h11.26V95.86h23.01    c3.12,0,5.84,1.13,8.06,3.35c2.22,2.23,3.35,4.94,3.35,8.06v0v21.6h11.26v-21.6v0c0-2.66-0.48-5.22-1.38-7.65    C366.56,94.9,361.15,90.97,355.05,90.67z M324.17,83.53V60.71h25.41c3.12,0,5.84,1.13,8.06,3.35c2.22,2.23,3.35,4.94,3.35,8.06    c0,3.13-1.13,5.84-3.35,8.07c-2.22,2.22-4.94,3.35-8.06,3.35H324.17z"/>
	</g>
	<g>
		<g>
			<path class="st1" d="M585.73,102.97c3.17,9.74,9.85,16.19,21.23,16.19c10.4,0,16.19-4.82,16.19-12.25     c0-6.57-4.27-10.07-13.9-12.15l-10.18-2.3c-12.8-2.74-20.03-8.97-20.03-21.34c0-12.58,10.61-21.78,26.7-21.78     c16.09,0,25.06,9.63,27.69,18.05l-10.29,4.7c-3.17-8.64-9.3-13.02-18.38-13.02c-9.3,0-14.77,4.82-14.77,11.49     c0,6.13,3.72,9.3,12.15,11.16l10.5,2.3c13.57,2.95,22,10.39,22,21.88c0,13.57-10.18,23.09-28.34,23.09     c-16.63,0-27.58-8.86-31.08-21.23L585.73,102.97z"/>
		</g>
	</g>
</g>
</svg>