<?xml version="1.0" encoding="utf-8"?>
<!-- Generator: Adobe Illustrator 25.4.1, SVG Export Plug-In . SVG Version: 6.00 Build 0)  -->
<svg version="1.1" id="Layer_1" xmlns="http://www.w3.org/2000/svg" xmlns:xlink="http://www.w3.org/1999/xlink" x="0px" y="0px"
	 viewBox="0 0 197.65 197.65" style="enable-background:new 0 0 197.65 197.65;" xml:space="preserve">
<style type="text/css">
	.st0{fill:#EF3C18;}
	.st1{fill:#EF3D17;}
	.st2{fill:#EAEAEA;}
</style>
<g>
	<polygon class="st2" points="115.63,76.58 110.46,71.4 110.46,76.58 	"/>
	<polygon class="st2" points="98.82,63.21 98.82,57 110.46,57 110.46,71.4 115.63,76.58 128.65,76.58 128.65,88.21 122.44,88.21 
		122.44,139.13 134.86,139.13 134.86,78.24 107.41,50.79 80.09,50.79 80.09,63.21 	"/>
	<polygon class="st2" points="122.44,159.48 55.92,159.48 55.92,63.21 67.66,63.21 67.66,50.79 43.5,50.79 43.5,171.91 
		134.86,171.91 134.86,151.55 122.44,151.55 	"/>
	<polygon class="st2" points="159.03,30.43 67.66,30.43 67.66,50.79 80.09,50.79 80.09,42.86 146.61,42.86 146.61,139.13 
		134.86,139.13 134.86,151.55 159.03,151.55 	"/>
	<rect x="122.44" y="139.13" class="st2" width="12.42" height="12.43"/>
	<rect x="67.66" y="50.79" class="st2" width="12.42" height="12.43"/>
	<polygon class="st2" points="122.44,88.21 122.44,83.39 115.63,76.58 110.46,76.58 110.46,71.4 102.27,63.21 98.82,63.21 
		98.82,88.21 	"/>
	<polygon class="st2" points="122.44,88.21 128.65,88.21 128.65,76.58 115.63,76.58 122.44,83.39 	"/>
	<polygon class="st2" points="110.46,71.4 110.46,57 98.82,57 98.82,63.21 102.27,63.21 	"/>
</g>
</svg>
