<svg xmlns="http://www.w3.org/2000/svg" viewBox="0 0 21.52 12.87"><defs><style>.cls-1{fill:#ef3d17;}</style></defs><g id="Layer_2" data-name="Layer 2"><g id="Layer_1-2" data-name="Layer 1"><path class="cls-1" d="M15.14,0H.68A.67.67,0,0,0,0,.68V12.19a.67.67,0,0,0,.68.68H15.14a.67.67,0,0,0,.48-.2l5.7-5.76a.68.68,0,0,0,0-1L15.62.2A.67.67,0,0,0,15.14,0ZM16,7.83a1.57,1.57,0,1,1,1.57-1.57A1.57,1.57,0,0,1,16,7.83ZM15.14,0H.68A.67.67,0,0,0,0,.68V12.19a.67.67,0,0,0,.68.68H15.14a.67.67,0,0,0,.48-.2l5.7-5.76a.68.68,0,0,0,0-1L15.62.2A.67.67,0,0,0,15.14,0ZM16,7.83a1.57,1.57,0,1,1,1.57-1.57A1.57,1.57,0,0,1,16,7.83ZM15.14,0H.68A.67.67,0,0,0,0,.68V12.19a.67.67,0,0,0,.68.68H15.14a.67.67,0,0,0,.48-.2l5.7-5.76a.68.68,0,0,0,0-1L15.62.2A.67.67,0,0,0,15.14,0ZM16,7.83a1.57,1.57,0,1,1,1.57-1.57A1.57,1.57,0,0,1,16,7.83ZM15.14,0H.68A.67.67,0,0,0,0,.68V12.19a.67.67,0,0,0,.68.68H15.14a.67.67,0,0,0,.48-.2l5.7-5.76a.68.68,0,0,0,0-1L15.62.2A.67.67,0,0,0,15.14,0ZM16,7.83a1.57,1.57,0,1,1,1.57-1.57A1.57,1.57,0,0,1,16,7.83ZM15.14,0H.68A.67.67,0,0,0,0,.68V12.19a.67.67,0,0,0,.68.68H15.14a.67.67,0,0,0,.48-.2l5.7-5.76a.68.68,0,0,0,0-1L15.62.2A.67.67,0,0,0,15.14,0ZM16,7.83a1.57,1.57,0,1,1,1.57-1.57A1.57,1.57,0,0,1,16,7.83ZM15.14,0H.68A.67.67,0,0,0,0,.68V12.19a.67.67,0,0,0,.68.68H15.14a.67.67,0,0,0,.48-.2l5.7-5.76a.68.68,0,0,0,0-1L15.62.2A.67.67,0,0,0,15.14,0ZM16,7.83a1.57,1.57,0,1,1,1.57-1.57A1.57,1.57,0,0,1,16,7.83ZM15.14,0H.68A.67.67,0,0,0,0,.68V12.19a.67.67,0,0,0,.68.68H15.14a.67.67,0,0,0,.48-.2l5.7-5.76a.68.68,0,0,0,0-1L15.62.2A.67.67,0,0,0,15.14,0ZM16,7.83a1.57,1.57,0,1,1,1.57-1.57A1.57,1.57,0,0,1,16,7.83ZM15.14,0H.68A.67.67,0,0,0,0,.68V12.19a.67.67,0,0,0,.68.68H15.14a.67.67,0,0,0,.48-.2l5.7-5.76a.68.68,0,0,0,0-1L15.62.2A.67.67,0,0,0,15.14,0ZM16,7.83a1.57,1.57,0,1,1,1.57-1.57A1.57,1.57,0,0,1,16,7.83Z"/></g></g></svg>