<?xml version="1.0" encoding="utf-8"?>
<!-- Generator: Adobe Illustrator 25.4.1, SVG Export Plug-In . SVG Version: 6.00 Build 0)  -->
<svg version="1.1" id="Layer_1" xmlns="http://www.w3.org/2000/svg" xmlns:xlink="http://www.w3.org/1999/xlink" x="0px" y="0px"
	 viewBox="0 0 197.65 197.65" style="enable-background:new 0 0 197.65 197.65;" xml:space="preserve">
<style type="text/css">
	.st0{fill:#EF3C18;}
	.st1{fill:#EF3D17;}
	.st2{fill:#0A0A0A;}
	.st2{fill:#fff;}
</style>
<path class="st2" d="M131.27,68.65h-82c-2.13,0-3.86,1.73-3.86,3.86l0,65.28c0,2.13,1.73,3.86,3.86,3.86h82
	c1.03,0,2.02-0.41,2.74-1.14l32.31-32.64c1.49-1.5,1.49-3.93,0-5.43l-32.31-32.64C133.29,69.06,132.3,68.65,131.27,68.65z
	 M136.11,113.07c-4.92,0-8.91-3.99-8.91-8.91c0-4.92,3.99-8.91,8.91-8.91c4.92,0,8.91,3.99,8.91,8.91
	C145.03,109.08,141.04,113.07,136.11,113.07z"/>
</svg>
