<?xml version="1.0" encoding="utf-8"?>
<!-- Generator: Adobe Illustrator 25.4.1, SVG Export Plug-In . SVG Version: 6.00 Build 0)  -->
<svg version="1.1" id="Layer_1" xmlns="http://www.w3.org/2000/svg" xmlns:xlink="http://www.w3.org/1999/xlink" x="0px" y="0px"
	 viewBox="0 0 197.65 197.65" style="enable-background:new 0 0 197.65 197.65;" xml:space="preserve">
<style type="text/css">
	.st0{fill:#EF3C18;}
	.st1{fill:#EF3D17;}
	.st2{fill:#EAEAEA;}
</style>
<g>
	<g>
		<path class="st2" d="M153.63,172.31h-107v-42.1c0-16.48,13.4-29.88,29.88-29.88h47.24c16.48,0,29.88,13.4,29.88,29.88V172.31z
			 M59.67,159.27h80.92v-29.06c0-9.28-7.55-16.84-16.84-16.84H76.51c-9.28,0-16.84,7.55-16.84,16.84V159.27z"/>
	</g>
	<g>
		<path class="st2" d="M100.13,94.51c-19.07,0-34.59-15.51-34.59-34.59s15.52-34.59,34.59-34.59c19.07,0,34.59,15.52,34.59,34.59
			S119.2,94.51,100.13,94.51z M100.13,38.38c-11.88,0-21.54,9.67-21.54,21.55c0,11.88,9.67,21.54,21.54,21.54
			c11.88,0,21.55-9.67,21.55-21.54C121.68,48.05,112.01,38.38,100.13,38.38z"/>
	</g>
</g>
</svg>
