<svg width="960" height="720" xmlns="http://www.w3.org/2000/svg" xmlns:xlink="http://www.w3.org/1999/xlink" overflow="hidden"><defs><clipPath id="clip0"><rect x="0" y="0" width="960" height="720"/></clipPath><clipPath id="clip1"><rect x="120" y="-12" width="682" height="682"/></clipPath><clipPath id="clip2"><rect x="120" y="-12" width="682" height="682"/></clipPath><clipPath id="clip3"><rect x="120" y="-12" width="682" height="682"/></clipPath></defs><g clip-path="url(#clip0)"><rect x="0" y="0" width="960" height="720" fill="#C00000"/><g clip-path="url(#clip1)"><g clip-path="url(#clip2)"><g clip-path="url(#clip3)"><path d="M310.194 466.763C305.674 465.21 301.947 464.486 298.738 464.486 292.872 464.486 288.628 466.97 285.005 472.594 282.003 477.218 280.899 482.083 281.762 486.673 282.59 490.986 285.281 494.781 289.249 497.404 313.334 512.69 338.937 520.453 365.334 520.453 404.601 520.453 443.696 502.89 475.372 471.007 517.296 428.841 541.104 367.456 540.725 302.586 537.585 246.687 515.57 208.283 473.474 185.406 468.367 182.611 463.709 181.196 459.706 181.196 454.047 181.196 449.561 184.025 445.904 189.822 440.072 199.104 442.315 207.351 453.357 217.392 512.396 271.083 520.47 335.159 477.304 407.897 447.491 458.171 416.885 479.599 374.961 479.599 356.707 479.599 335.486 475.389 310.194 466.763Z" fill="#FFFFFF"/><path d="M431.136 256.901 429.583 256.866C384.139 256.866 333.796 329.155 333.382 395.026 331.932 413.349 335.659 428.082 344.078 437.882 351.773 446.853 363.47 451.926 378.791 453.03 379.791 453.099 380.792 453.133 381.758 453.133 426.926 453.133 478.546 382.052 478.615 319.735 478.684 278.122 463.605 258.143 431.136 256.901ZM442.936 334.607C441.315 339.541 439.969 344.855 438.52 350.48 432.205 375.324 425.028 403.48 390.695 412.762 388.521 413.349 386.486 413.625 384.588 413.625 380.033 413.625 376.237 411.899 373.546 408.656 367.231 401.03 369.026 387.504 370.061 382.052L370.648 379.085C377.1 345.614 384.415 307.693 424.372 295.547 425.925 295.064 427.443 294.822 428.858 294.822 442.522 294.822 442.798 313.593 443.074 330.19L443.143 333.296 443.143 333.986 442.936 334.607Z" fill="#FFFFFF"/><path d="M280.795 536.947C276.103 534.428 271.651 533.117 267.787 533.117 261.679 533.117 256.849 536.257 253.467 542.502 246.738 554.89 254.64 564.206 262.438 569.831 286.144 586.911 314.024 594.882 350.22 594.882L353.981 594.847C428.824 592.984 499.836 553.993 548.799 487.915 601.109 417.282 619.225 328.051 597.314 249.241 577.059 175.434 536.446 127.057 473.163 101.385 465.779 98.3829 459.672 96.9337 454.496 96.9337 446.042 96.9337 440.487 100.798 436.967 109.08 433.62 116.981 432.792 126.263 452.115 135.235 559.013 183.784 578.612 286.403 561.359 366.249 534.445 490.606 439.658 555.683 359.951 555.683 333.589 555.58 306.95 549.3 280.795 536.947Z" fill="#FFFFFF"/><path d="M594.208 495.54C598.038 497.542 601.627 498.542 604.87 498.542 616.292 498.542 623.676 485.361 629.68 472.974 656.594 417.558 669.741 362.833 671.052 300.723 666.808 235.853 651.384 141.687 567.121 77.4381L565.362 76.0924C557.046 69.7089 548.454 63.1528 540.449 63.1528 535.238 63.1528 530.477 66.1203 525.922 72.1933 516.468 84.8223 522.954 90.9642 535.273 100.695 537.964 102.834 540.656 104.973 543.037 107.182 653.247 201.002 648.589 350.411 595.002 456.791 594.07 458.689 593.035 460.725 591.931 462.795 587.549 471.145 583.029 479.772 585.133 486.466 586.272 489.985 589.24 492.953 594.208 495.54Z" fill="#FFFFFF"/></g></g></g></g></svg>